<svg xmlns="http://www.w3.org/2000/svg" xmlns:xlink="http://www.w3.org/1999/xlink" width="3780" zoomAndPan="magnify" viewBox="0 0 2835 1417.499962" height="1890" preserveAspectRatio="xMidYMid meet" version="1.2"><defs><clipPath id="ac00a4de27"><path d="M 0.5 0 L 2834.5 0 L 2834.5 1417 L 0.5 1417 Z M 0.5 0 "/></clipPath><clipPath id="37b8d70e57"><path d="M 0.5 0 L 2834.5 0 L 2834.5 1417 L 0.5 1417 Z M 0.5 0 "/></clipPath><clipPath id="c236e37598"><rect x="0" width="2713" y="0" height="1001"/></clipPath><clipPath id="b4d330642b"><rect x="0" width="2835" y="0" height="1417"/></clipPath></defs><g id="28cddf2753"><g clip-rule="nonzero" clip-path="url(#ac00a4de27)"><path style=" stroke:none;fill-rule:nonzero;fill:#ffffff;fill-opacity:1;" d="M 0.5 0 L 2834.5 0 L 2834.5 1417 L 0.5 1417 Z M 0.5 0 "/><g transform="matrix(1,0,0,1,0,0)"><g clip-path="url(#b4d330642b)"><g clip-rule="nonzero" clip-path="url(#37b8d70e57)"><path style=" stroke:none;fill-rule:nonzero;fill:#e1e3e4;fill-opacity:1;" d="M 0.5 0 L 2834.855469 0 L 2834.855469 1417.175781 L 0.5 1417.175781 Z M 0.5 0 "/></g><g transform="matrix(1,0,0,1,58,137)"><g id="2ae8a407ac" clip-path="url(#c236e37598)"><g style="fill:#000000;fill-opacity:1;"><g transform="translate(0.422873, 810.737349)"><path style="stroke:none" d="M 133.359375 -178 L 133.359375 0 L 32.265625 0 L 32.265625 -443.640625 L 133.359375 -443.640625 L 133.359375 -266.71875 L 276.40625 -266.71875 L 276.40625 -443.640625 L 377.5 -443.640625 L 377.5 0 L 276.40625 0 L 276.40625 -178 Z M 133.359375 -178 "/></g></g><g style="fill:#000000;fill-opacity:1;"><g transform="translate(410.17365, 810.737349)"><path style="stroke:none" d="M 257.578125 -443.640625 L 436.65625 0 L 328.03125 0 L 295.21875 -88.734375 L 126.375 -88.734375 L 93.5625 0 L -15.0625 0 L 164.015625 -443.640625 Z M 260.8125 -177.453125 L 211.328125 -306.515625 L 210.265625 -306.515625 L 160.78125 -177.453125 Z M 260.8125 -177.453125 "/></g></g><g style="fill:#000000;fill-opacity:1;"><g transform="translate(805.942797, 810.737349)"><path style="stroke:none" d="M 4.296875 -354.921875 L 4.296875 -443.640625 L 316.203125 -443.640625 L 316.203125 -354.921875 L 210.796875 -354.921875 L 210.796875 0 L 109.703125 0 L 109.703125 -354.921875 Z M 4.296875 -354.921875 "/></g></g><g style="fill:#000000;fill-opacity:1;"><g transform="translate(1126.430292, 810.737349)"><path style="stroke:none" d="M 32.265625 -443.640625 L 190.90625 -443.640625 C 233.5625 -443.640625 268.332031 -432.253906 295.21875 -409.484375 C 322.113281 -386.722656 335.5625 -354.191406 335.5625 -311.890625 C 335.5625 -279.265625 327.40625 -251.925781 311.09375 -229.875 C 294.78125 -207.832031 272.640625 -192.332031 244.671875 -183.375 L 397.390625 0 L 268.875 0 L 133.359375 -175.3125 L 133.359375 0 L 32.265625 0 Z M 133.359375 -246.828125 L 145.1875 -246.828125 C 154.507812 -246.828125 162.394531 -247.003906 168.84375 -247.359375 C 175.300781 -247.722656 182.648438 -248.976562 190.890625 -251.125 C 199.140625 -253.28125 205.773438 -256.328125 210.796875 -260.265625 C 215.816406 -264.210938 220.117188 -269.945312 223.703125 -277.46875 C 227.285156 -285 229.078125 -294.140625 229.078125 -304.890625 C 229.078125 -315.648438 227.285156 -324.796875 223.703125 -332.328125 C 220.117188 -339.859375 215.816406 -345.59375 210.796875 -349.53125 C 205.773438 -353.476562 199.140625 -356.523438 190.890625 -358.671875 C 182.648438 -360.828125 175.300781 -362.082031 168.84375 -362.4375 C 162.394531 -362.800781 154.507812 -362.984375 145.1875 -362.984375 L 133.359375 -362.984375 Z M 133.359375 -246.828125 "/></g></g><g style="fill:#000000;fill-opacity:1;"><g transform="translate(1511.445438, 810.737349)"><path style="stroke:none" d="M 12.375 -222.09375 C 12.375 -286.257812 34.238281 -340.566406 77.96875 -385.015625 C 121.707031 -429.472656 174.410156 -451.703125 236.078125 -451.703125 C 298.097656 -451.703125 350.796875 -429.566406 394.171875 -385.296875 C 437.546875 -341.023438 459.234375 -286.625 459.234375 -222.09375 C 459.234375 -157.207031 437.898438 -102.625 395.234375 -58.34375 C 352.578125 -14.070312 299.523438 8.0625 236.078125 8.0625 C 171.179688 8.0625 117.671875 -13.894531 75.546875 -57.8125 C 33.429688 -101.726562 12.375 -156.488281 12.375 -222.09375 Z M 121.53125 -222.09375 C 121.53125 -198.789062 125.113281 -177.546875 132.28125 -158.359375 C 139.457031 -139.179688 152.003906 -122.957031 169.921875 -109.6875 C 187.847656 -96.425781 209.898438 -89.796875 236.078125 -89.796875 C 273.710938 -89.796875 302.117188 -102.703125 321.296875 -128.515625 C 340.484375 -154.328125 350.078125 -185.519531 350.078125 -222.09375 C 350.078125 -258.300781 340.304688 -289.398438 320.765625 -315.390625 C 301.222656 -341.378906 272.992188 -354.375 236.078125 -354.375 C 199.503906 -354.375 171.269531 -341.378906 151.375 -315.390625 C 131.476562 -289.398438 121.53125 -258.300781 121.53125 -222.09375 Z M 121.53125 -222.09375 "/></g></g><g style="fill:#000000;fill-opacity:1;"><g transform="translate(1983.119958, 810.737349)"><path style="stroke:none" d=""/></g></g><g style="fill:#000000;fill-opacity:1;"><g transform="translate(2129.920447, 810.737349)"><path style="stroke:none" d=""/></g></g><g style="fill:#000000;fill-opacity:1;"><g transform="translate(2046.538808, 461.184228)"><path style="stroke:none" d="M 132.203125 -102.21875 L 132.203125 0 L 30.609375 0 L 30.609375 -102.21875 Z M 132.203125 -102.21875 "/></g></g><g style="fill:#000000;fill-opacity:1;"><g transform="translate(2209.362791, 461.184228)"><path style="stroke:none" d=""/></g></g><g style="fill:#000000;fill-opacity:1;"><g transform="translate(2046.538808, 814.852948)"><path style="stroke:none" d="M 132.203125 -102.21875 L 132.203125 0 L 30.609375 0 L 30.609375 -102.21875 Z M 132.203125 -102.21875 "/></g></g><g style="fill:#000000;fill-opacity:1;"><g transform="translate(2209.362791, 814.852948)"><path style="stroke:none" d=""/></g></g><g style="fill:#000000;fill-opacity:1;"><g transform="translate(2258.036832, 810.737349)"><path style="stroke:none" d="M 447.40625 0 L 316.734375 0 L 211.875 -151.109375 L 107.015625 0 L -18.28125 0 L 149.5 -238.765625 L 9.671875 -443.640625 L 130.140625 -443.640625 L 211.875 -322.65625 L 293.609375 -443.640625 L 419.4375 -443.640625 L 274.25 -238.765625 Z M 447.40625 0 "/></g></g></g></g></g></g></g></g></svg>