<svg xmlns="http://www.w3.org/2000/svg" xmlns:xlink="http://www.w3.org/1999/xlink" width="500" zoomAndPan="magnify" viewBox="0 0 375 374.999991" height="500" preserveAspectRatio="xMidYMid meet" version="1.2"><defs><clipPath id="3e1f2f2e40"><rect x="0" width="336" y="0" height="375"/></clipPath></defs><g id="0ef204406e"><rect x="0" width="375" y="0" height="374.999991" style="fill:#ffffff;fill-opacity:1;stroke:none;"/><rect x="0" width="375" y="0" height="374.999991" style="fill:#e1e3e4;fill-opacity:1;stroke:none;"/><g transform="matrix(1,0,0,1,18,0)"><g clip-path="url(#3e1f2f2e40)"><g style="fill:#000000;fill-opacity:1;"><g transform="translate(0.800002, 122.141642)"><path style="stroke:none" d="M 66.375 -51.3125 L 66.375 0 L 15.359375 0 L 15.359375 -51.3125 Z M 66.375 -51.3125 "/></g></g><g style="fill:#000000;fill-opacity:1;"><g transform="translate(82.546573, 122.141642)"><path style="stroke:none" d=""/></g></g><g style="fill:#000000;fill-opacity:1;"><g transform="translate(0.800002, 299.702739)"><path style="stroke:none" d="M 66.375 -51.3125 L 66.375 0 L 15.359375 0 L 15.359375 -51.3125 Z M 66.375 -51.3125 "/></g></g><g style="fill:#000000;fill-opacity:1;"><g transform="translate(82.546573, 299.702739)"><path style="stroke:none" d=""/></g></g><g style="fill:#000000;fill-opacity:1;"><g transform="translate(106.983693, 297.636481)"><path style="stroke:none" d="M 224.625 0 L 159.015625 0 L 106.375 -75.859375 L 53.734375 0 L -9.171875 0 L 75.0625 -119.875 L 4.859375 -222.734375 L 65.34375 -222.734375 L 106.375 -161.984375 L 147.40625 -222.734375 L 210.59375 -222.734375 L 137.6875 -119.875 Z M 224.625 0 "/></g></g></g></g></g></svg>